# xmcd CD database file
#
# Track frame offsets:
#	150
#	9609
#	20166
#	32218
#	43648
#	55970
#	66401
#	76924
#	87231
#	98363
#	111874
#	124177
#	135513
#	146706
#	158692
#	166950
#	178244
#	188149
#	200510
#	214367
#	226022
#	234309
#	253728
#	270252
#	282390
#	292950
#	303483
#	323187
#	332741
#	348032
#
# Disc length: 4848 seconds
#
# Revision: 0
# Processed by: cddbd v1.5.1PL0 Copyright (c) Steve Scherf et al.
# Submitted via: CDex 1.51
#
DISCID=af12ee1e
DTITLE=Various Artist - 30 Supercountry's
DYEAR=2003
DGENRE=Country
TTITLE0=Drinkin' And Druggin' And Watchin' T. V
TTITLE1=Connie Smith - Louisiana Man
TTITLE2=Dave && Sugar - Queen Of The Silver Dollar
TTITLE3=Dolly Parton - The Last Thing On My Mind
TTITLE4=Don Williams - Some Broken Hearts Never Mend
TTITLE5=Johnny Cash - A Thing Called Love
TTITLE6=Johnny Cash - Big River
TTITLE7=Johnny Cash - Bonanza
TTITLE8=Johnny Cash - Clementine
TTITLE9=Johnny Cash - Don't Take Your Guns To Town
TTITLE10=Johnny Cash - Folsom Prison Blues
TTITLE11=Johnny Cash - Hey Porter
TTITLE12=Johnny Cash - I Still Miss Someone
TTITLE13=Johnny Cash - I Walk  The Line
TTITLE14=Johnny Cash - I'm Free From The Chain Gang Now
TTITLE15=Johnny Cash - In Them Old Cottonfields At Home
TTITLE16=Johnny Cash - Little Green Valley
TTITLE17=Johnny Cash - My Grandfather's Clock
TTITLE18=Johnny Cash - Orange Blossom Special
TTITLE19=Johnny Cash - Ring of Fire
TTITLE20=Johnny Cash - San Quentin
TTITLE21=Johnny Cash - Sunday Morning Coming Down
TTITLE22=Johnny Cash - The Streets Of Laredo
TTITLE23=June Carter && Johnny Cash - Jackson
TTITLE24=Leroy van Dyke - Walk On By
TTITLE25=Liz Anderson - Husband Hunting
TTITLE26=Marty Robbins - El Paso
TTITLE27=Norma Jean - Somebody's Gonna Plow Your Field
TTITLE28=Truck Stop - Henry's Farm
TTITLE29=Truck Stop - Ich möcht so gern Dave Dudley hör'n
EXTD=YEAR: 2003
EXTT0=
EXTT1=
EXTT2=
EXTT3=
EXTT4=
EXTT5=
EXTT6=
EXTT7=
EXTT8=
EXTT9=
EXTT10=
EXTT11=
EXTT12=
EXTT13=
EXTT14=
EXTT15=
EXTT16=
EXTT17=
EXTT18=
EXTT19=
EXTT20=
EXTT21=
EXTT22=
EXTT23=
EXTT24=
EXTT25=
EXTT26=
EXTT27=
EXTT28=
EXTT29=
PLAYORDER=
